<svg xmlns="http://www.w3.org/2000/svg" viewBox="0 0 32 32">
    <ellipse cx="9.9" cy="22.2" rx="15.3" ry="6.3" transform="matrix(.97235 -.23352 .28643 .9581 0 0)" opacity=".2"/>
    <path d="M15 7c-7 0-5.4 6.2-9 8.1-3.6 2-1.6 4-1 5.9 1 3.3 3.8 1 12-1s10-1.7 9-5c-.6-2 1.4-3.8-2.9-4-3.4.2-3.1-4-8.1-4z"
          fill="#4f4f4f"/>
    <path d="M15 7c-7 0-5.4 6.2-9 8.1-1.9 1.1-2.2 2.1-2 3.2.2-.7.7-1.5 2-2.2 3.6-2 2-8.1 9-8.1 5 0 4.7 4.2 8.1 4 2 .1 2.7.6 2.8 1.3.1-1.2.2-2.2-2.8-2.3-3.4.2-3.1-4-8.1-4zm10.9 7.4L26 16l.2.8c.1-.5 0-1-.2-1.8l-.1-.6z"
          opacity=".1" fill="#fff"/>
    <ellipse cx="10.2" cy="21.3" rx="15.3" ry="6.3" transform="matrix(.97235 -.23352 .28643 .9581 0 0)" fill="#2e72de"/>
    <ellipse cx="11.6" cy="26.8" rx="7.2" ry="3.2" transform="matrix(.97263 -.23237 .21506 .9766 0 0)" opacity=".2"/>
    <ellipse cx="11.8" cy="25.8" rx="7.2" ry="3.2" transform="matrix(.97263 -.23237 .21506 .9766 0 0)" fill="#fff"/>
    <path
            d="M21.6 11a6.3 15.3 77.1 00-7.4 1 6.3 15.3 77.1 00-13.1 9.3A6.3 15.3 77.1 0114.2 13a6.3 15.3 77.1 0116.7 2.4 6.3 15.3 77.1 010 .3 6.3 15.3 77.1 000-1.3 6.3 15.3 77.1 00-9.3-3.4z"
            opacity=".1" fill="#fff"
    />
</svg>
