<svg xmlns="http://www.w3.org/2000/svg" viewBox="0 0 512 512">
    <path d="M44.3 424H26a18.4 18.4 0 01-18.4-18.4V281.3c0-10.2 8.2-18.4 18.4-18.4h18.4v161z" fill="#5766cb"/>
    <path d="M83.4 442.4h-23c-8.9 0-16-7.2-16-16.1V260.6c0-8.9 7.1-16.1 16-16.1h23c9 0 16.1 7.2 16.1 16.1v165.7c0 8.9-7.2 16-16 16z"
          fill="#8993da"/>
    <path d="M83.4 244.5H59.3c8.3.6 15 7.6 15 16.1v165.7c0 8.5-6.7 15.4-15 16h24.1c9 0 16.1-7.1 16.1-16V260.6c0-8.9-7.2-16.1-16-16.1z"
          fill="#707dd3"/>
    <path d="M467.7 424H486c10.2 0 18.4-8.3 18.4-18.4V281.3c0-10.2-8.2-18.4-18.4-18.4h-18.4z" fill="#5766cb"/>
    <path d="M428.6 442.4h23c8.9 0 16-7.2 16-16.1V260.6c0-8.9-7.1-16.1-16-16.1h-23c-9 0-16.1 7.2-16.1 16.1v165.7c0 8.9 7.2 16 16 16z"
          fill="#8993da"/>
    <path d="M451.6 244.5h-24.2c8.4.6 15 7.6 15 16.1v165.7c0 8.5-6.6 15.4-15 16h24.2c8.9 0 16-7.1 16-16V260.6c0-8.9-7.1-16.1-16-16.1z"
          fill="#707dd3"/>
    <path d="M256 7.5a230 230 0 00-189 99 11.5 11.5 0 001.3 14.7l10 10a11.5 11.5 0 0017.6-1.8 193.2 193.2 0 01320.2 0c4 6 12.5 6.9 17.7 1.7l9.9-9.9c4-4 4.5-10.1 1.3-14.7a230 230 0 00-189-99z"
          fill="#86a0af"/>
    <path d="M131.8 456V215.6a48.5 48.5 0 0148.4-48.5h201v289H131.9z" fill="#b3e59f"/>
    <path d="M358 167.1h23.3v289H358z" fill="#95d6a4"/>
    <path d="M195.4 209.5h141.4v70.7H195.4z" fill="#f9f6f9"/>
    <path d="M180.2 504.5a48.5 48.5 0 010-97h201v97z" fill="#ccf49f"/>
    <path d="M381.3 439.9h-201a16.2 16.2 0 000 32.3h201z" fill="#f9f6f9"/>
    <path d="M486 255.4h-10.8v-17.8c0-38.2-10-75.6-28.7-108.5l2.5-2.6a19 19 0 002.1-24.3C406.6 38.2 333.7 0 256 0S105.4 38.2 60.9 102.2a19 19 0 002.1 24.3l2.5 2.6a218.9 218.9 0 00-28.7 108.5v17.8H26a26 26 0 00-25.9 26v124.2a26 26 0 0026 25.9h11.4a23.6 23.6 0 0023 18.4h23c13 0 23.6-10.6 23.6-23.6v-18.8a7.5 7.5 0 00-15 0v18.8c0 4.7-3.8 8.6-8.6 8.6h-23a8.6 8.6 0 01-8.6-8.6V260.5c0-4.7 4-8.5 8.6-8.5h23c4.8 0 8.6 3.9 8.6 8.6v112a7.5 7.5 0 0015 0v-112c0-13-10.6-23.6-23.6-23.6h-23c-3 0-6 .6-8.6 1.6v-1a204 204 0 0125-98.1 19 19 0 0025.3-6 185.8 185.8 0 01307.8 0 19 19 0 0025.2 6 204 204 0 0125 98v1.1c-2.6-1-5.5-1.6-8.5-1.6h-23c-13 0-23.6 10.6-23.6 23.6v165.7c0 13 10.6 23.6 23.6 23.6h23c11.2 0 20.6-8 23-18.4h11.5a26 26 0 0025.9-26V281.4a26 26 0 00-26-25.9zM15 405.6V281.3c0-6 4.9-10.9 11-10.9h10.8v146H26c-6 0-10.9-4.8-10.9-10.8zM425.3 127a4 4 0 01-3-1.8 200.8 200.8 0 00-332.6 0 4 4 0 01-3 1.8c-.7 0-2 0-3.2-1.2l-9.9-9.9a4 4 0 01-.4-5.1C114.9 50.8 183.2 15 256 15s141.1 35.8 182.8 95.8a4 4 0 01-.4 5.1l-10 10a4 4 0 01-3 1zM497 405.6c0 6-4.9 10.9-11 10.9h-10.8v-70a7.5 7.5 0 00-15 0v79.8c0 4.7-3.9 8.6-8.6 8.6h-23a8.6 8.6 0 01-8.6-8.6V260.6c0-4.7 3.8-8.6 8.6-8.6h23c4.7 0 8.5 3.8 8.6 8.5v51a7.5 7.5 0 0015 0v-41.1H486c6 0 10.9 4.9 10.9 11z"/>
    <path d="M195.4 202a7.5 7.5 0 00-7.5 7.5v70.7c0 4.2 3.3 7.5 7.5 7.5h141.4c4.2 0 7.5-3.3 7.5-7.5v-70.7c0-4.1-3.3-7.5-7.5-7.5zm134 70.7H202.8V217h126.4z"/>
    <path d="M388.8 231.8a7.5 7.5 0 00-15 0V400H180.2a55.8 55.8 0 00-41 18V215.5a41 41 0 0141-41h193.6v22.2a7.5 7.5 0 0015 0V167c0-4.1-3.4-7.5-7.5-7.5h-201a56 56 0 00-56 56V456a56 56 0 0056 56h201c4.1 0 7.5-3.4 7.5-7.5zm-15 224.2v8.7H180.2a8.7 8.7 0 010-17.4h193.6v8.7zm-193.6 41a41 41 0 010-82h193.6v17.3H180.2a23.7 23.7 0 000 47.4h193.6V497z"/>
</svg>
